<mxfile host="app.diagrams.net" modified="2020-03-14T17:01:09.292Z" agent="Mozilla/5.0 (Macintosh; Intel Mac OS X 10_12_6) AppleWebKit/537.36 (KHTML, like Gecko) Chrome/80.0.3987.132 Safari/537.36" etag="epZ8u7b0U-lM5uwjIfGo" version="12.8.4" type="github">
  <diagram id="aFrichsZubXLWK6YZcP_" name="Page-1">
    <mxGraphModel dx="946" dy="467" grid="0" gridSize="10" guides="1" tooltips="1" connect="1" arrows="1" fold="1" page="1" pageScale="1" pageWidth="827" pageHeight="1169" math="0" shadow="0">
      <root>
        <mxCell id="0" />
        <mxCell id="1" parent="0" />
        <mxCell id="72bKas-eFgV5V1hWHT99-31" style="edgeStyle=none;rounded=0;orthogonalLoop=1;jettySize=auto;html=1;exitX=0.25;exitY=1;exitDx=0;exitDy=0;entryX=0.25;entryY=0;entryDx=0;entryDy=0;" edge="1" parent="1" source="72bKas-eFgV5V1hWHT99-27" target="72bKas-eFgV5V1hWHT99-28">
          <mxGeometry relative="1" as="geometry" />
        </mxCell>
        <mxCell id="72bKas-eFgV5V1hWHT99-52" value="关机" style="text;html=1;align=center;verticalAlign=middle;resizable=0;points=[];labelBackgroundColor=#ffffff;" vertex="1" connectable="0" parent="72bKas-eFgV5V1hWHT99-31">
          <mxGeometry x="-0.0285" relative="1" as="geometry">
            <mxPoint as="offset" />
          </mxGeometry>
        </mxCell>
        <mxCell id="72bKas-eFgV5V1hWHT99-27" value="" style="rounded=1;whiteSpace=wrap;html=1;" vertex="1" parent="1">
          <mxGeometry x="182" y="222" width="520" height="275" as="geometry" />
        </mxCell>
        <mxCell id="72bKas-eFgV5V1hWHT99-32" style="edgeStyle=none;rounded=0;orthogonalLoop=1;jettySize=auto;html=1;exitX=0.75;exitY=0;exitDx=0;exitDy=0;entryX=0.75;entryY=1;entryDx=0;entryDy=0;" edge="1" parent="1" source="72bKas-eFgV5V1hWHT99-28" target="72bKas-eFgV5V1hWHT99-27">
          <mxGeometry relative="1" as="geometry" />
        </mxCell>
        <mxCell id="72bKas-eFgV5V1hWHT99-53" value="开机" style="text;html=1;align=center;verticalAlign=middle;resizable=0;points=[];labelBackgroundColor=#ffffff;" vertex="1" connectable="0" parent="72bKas-eFgV5V1hWHT99-32">
          <mxGeometry x="-0.0684" y="-2" relative="1" as="geometry">
            <mxPoint as="offset" />
          </mxGeometry>
        </mxCell>
        <mxCell id="72bKas-eFgV5V1hWHT99-28" value="" style="rounded=1;whiteSpace=wrap;html=1;" vertex="1" parent="1">
          <mxGeometry x="401" y="555" width="82" height="45" as="geometry" />
        </mxCell>
        <mxCell id="72bKas-eFgV5V1hWHT99-29" value="&lt;font style=&quot;font-size: 14px&quot;&gt;关机状态&lt;/font&gt;" style="text;html=1;strokeColor=none;fillColor=none;align=center;verticalAlign=middle;whiteSpace=wrap;rounded=0;" vertex="1" parent="1">
          <mxGeometry x="410" y="565" width="60" height="20" as="geometry" />
        </mxCell>
        <mxCell id="72bKas-eFgV5V1hWHT99-33" value="" style="rounded=1;whiteSpace=wrap;html=1;" vertex="1" parent="1">
          <mxGeometry x="200" y="260" width="310" height="220" as="geometry" />
        </mxCell>
        <mxCell id="72bKas-eFgV5V1hWHT99-37" value="打开WiFi" style="edgeStyle=none;rounded=0;orthogonalLoop=1;jettySize=auto;html=1;exitX=1;exitY=1;exitDx=0;exitDy=0;entryX=0.5;entryY=0;entryDx=0;entryDy=0;fontSize=14;" edge="1" parent="1" source="72bKas-eFgV5V1hWHT99-35" target="72bKas-eFgV5V1hWHT99-36">
          <mxGeometry relative="1" as="geometry" />
        </mxCell>
        <mxCell id="72bKas-eFgV5V1hWHT99-50" value="离开子网" style="edgeStyle=none;rounded=0;orthogonalLoop=1;jettySize=auto;html=1;exitX=0;exitY=1;exitDx=0;exitDy=0;entryX=1;entryY=0.5;entryDx=0;entryDy=0;fontSize=14;" edge="1" parent="1" source="72bKas-eFgV5V1hWHT99-35" target="72bKas-eFgV5V1hWHT99-45">
          <mxGeometry relative="1" as="geometry">
            <Array as="points">
              <mxPoint x="310" y="375" />
            </Array>
          </mxGeometry>
        </mxCell>
        <mxCell id="72bKas-eFgV5V1hWHT99-35" value="" style="ellipse;whiteSpace=wrap;html=1;aspect=fixed;" vertex="1" parent="1">
          <mxGeometry x="365" y="320" width="30" height="30" as="geometry" />
        </mxCell>
        <mxCell id="72bKas-eFgV5V1hWHT99-42" value="下载应用" style="edgeStyle=none;rounded=0;orthogonalLoop=1;jettySize=auto;html=1;exitX=1;exitY=1;exitDx=0;exitDy=0;fontSize=14;" edge="1" parent="1" source="72bKas-eFgV5V1hWHT99-36" target="72bKas-eFgV5V1hWHT99-41">
          <mxGeometry relative="1" as="geometry" />
        </mxCell>
        <mxCell id="72bKas-eFgV5V1hWHT99-36" value="" style="ellipse;whiteSpace=wrap;html=1;aspect=fixed;" vertex="1" parent="1">
          <mxGeometry x="380" y="390" width="30" height="30" as="geometry" />
        </mxCell>
        <mxCell id="72bKas-eFgV5V1hWHT99-41" value="" style="ellipse;whiteSpace=wrap;html=1;aspect=fixed;" vertex="1" parent="1">
          <mxGeometry x="470" y="440" width="30" height="30" as="geometry" />
        </mxCell>
        <mxCell id="72bKas-eFgV5V1hWHT99-43" value="" style="rounded=1;whiteSpace=wrap;html=1;" vertex="1" parent="1">
          <mxGeometry x="528" y="294" width="160" height="130" as="geometry" />
        </mxCell>
        <mxCell id="72bKas-eFgV5V1hWHT99-40" value="安装应用" style="edgeStyle=none;rounded=0;orthogonalLoop=1;jettySize=auto;html=1;exitX=1;exitY=1;exitDx=0;exitDy=0;entryX=0;entryY=0;entryDx=0;entryDy=0;fontSize=14;" edge="1" parent="1" source="72bKas-eFgV5V1hWHT99-38" target="72bKas-eFgV5V1hWHT99-39">
          <mxGeometry relative="1" as="geometry" />
        </mxCell>
        <mxCell id="72bKas-eFgV5V1hWHT99-38" value="" style="ellipse;whiteSpace=wrap;html=1;aspect=fixed;" vertex="1" parent="1">
          <mxGeometry x="548" y="334" width="30" height="30" as="geometry" />
        </mxCell>
        <mxCell id="72bKas-eFgV5V1hWHT99-39" value="" style="ellipse;whiteSpace=wrap;html=1;aspect=fixed;" vertex="1" parent="1">
          <mxGeometry x="628" y="389" width="30" height="30" as="geometry" />
        </mxCell>
        <mxCell id="72bKas-eFgV5V1hWHT99-46" style="edgeStyle=none;rounded=0;orthogonalLoop=1;jettySize=auto;html=1;exitX=1;exitY=0;exitDx=0;exitDy=0;entryX=0;entryY=0.5;entryDx=0;entryDy=0;" edge="1" parent="1" source="72bKas-eFgV5V1hWHT99-45" target="72bKas-eFgV5V1hWHT99-35">
          <mxGeometry relative="1" as="geometry">
            <Array as="points">
              <mxPoint x="310" y="310" />
            </Array>
          </mxGeometry>
        </mxCell>
        <mxCell id="72bKas-eFgV5V1hWHT99-65" value="加入子网" style="text;html=1;align=center;verticalAlign=middle;resizable=0;points=[];labelBackgroundColor=#ffffff;fontSize=14;" vertex="1" connectable="0" parent="72bKas-eFgV5V1hWHT99-46">
          <mxGeometry x="-0.0226" y="-1" relative="1" as="geometry">
            <mxPoint as="offset" />
          </mxGeometry>
        </mxCell>
        <mxCell id="72bKas-eFgV5V1hWHT99-56" value="打开wifi" style="edgeStyle=none;rounded=0;orthogonalLoop=1;jettySize=auto;html=1;exitX=0.5;exitY=1;exitDx=0;exitDy=0;entryX=0;entryY=0;entryDx=0;entryDy=0;fontSize=14;" edge="1" parent="1" source="72bKas-eFgV5V1hWHT99-45" target="72bKas-eFgV5V1hWHT99-55">
          <mxGeometry relative="1" as="geometry">
            <Array as="points" />
          </mxGeometry>
        </mxCell>
        <mxCell id="72bKas-eFgV5V1hWHT99-45" value="" style="ellipse;whiteSpace=wrap;html=1;aspect=fixed;" vertex="1" parent="1">
          <mxGeometry x="205" y="330" width="30" height="30" as="geometry" />
        </mxCell>
        <mxCell id="72bKas-eFgV5V1hWHT99-51" value="&lt;font style=&quot;font-size: 14px&quot;&gt;？表示接收消息&lt;br&gt;！ 表示发送消息&lt;/font&gt;" style="text;html=1;align=center;verticalAlign=middle;resizable=0;points=[];autosize=1;" vertex="1" parent="1">
          <mxGeometry x="562" y="521" width="120" height="40" as="geometry" />
        </mxCell>
        <mxCell id="72bKas-eFgV5V1hWHT99-57" value="加入子网" style="edgeStyle=none;rounded=0;orthogonalLoop=1;jettySize=auto;html=1;exitX=1;exitY=0.5;exitDx=0;exitDy=0;entryX=0;entryY=1;entryDx=0;entryDy=0;fontSize=14;" edge="1" parent="1" source="72bKas-eFgV5V1hWHT99-55" target="72bKas-eFgV5V1hWHT99-36">
          <mxGeometry relative="1" as="geometry" />
        </mxCell>
        <mxCell id="72bKas-eFgV5V1hWHT99-55" value="" style="ellipse;whiteSpace=wrap;html=1;aspect=fixed;" vertex="1" parent="1">
          <mxGeometry x="270" y="420" width="30" height="30" as="geometry" />
        </mxCell>
        <mxCell id="72bKas-eFgV5V1hWHT99-61" value="接收文件！" style="edgeStyle=none;rounded=0;orthogonalLoop=1;jettySize=auto;html=1;exitX=0;exitY=0;exitDx=0;exitDy=0;entryX=1;entryY=0;entryDx=0;entryDy=0;fontSize=14;" edge="1" parent="1" source="72bKas-eFgV5V1hWHT99-35" target="72bKas-eFgV5V1hWHT99-35">
          <mxGeometry relative="1" as="geometry">
            <Array as="points">
              <mxPoint x="380" y="280" />
            </Array>
          </mxGeometry>
        </mxCell>
        <mxCell id="72bKas-eFgV5V1hWHT99-63" value="应用管理" style="text;html=1;strokeColor=none;fillColor=none;align=center;verticalAlign=middle;whiteSpace=wrap;rounded=0;fontSize=14;" vertex="1" parent="1">
          <mxGeometry x="538" y="304" width="60" height="20" as="geometry" />
        </mxCell>
        <mxCell id="72bKas-eFgV5V1hWHT99-64" value="&lt;font style=&quot;font-size: 14px&quot;&gt;开机状态&lt;/font&gt;" style="text;html=1;strokeColor=none;fillColor=none;align=center;verticalAlign=middle;whiteSpace=wrap;rounded=0;" vertex="1" parent="1">
          <mxGeometry x="200" y="230" width="60" height="20" as="geometry" />
        </mxCell>
        <mxCell id="72bKas-eFgV5V1hWHT99-68" style="edgeStyle=none;rounded=0;orthogonalLoop=1;jettySize=auto;html=1;exitX=0.5;exitY=1;exitDx=0;exitDy=0;fontSize=14;" edge="1" parent="1" source="72bKas-eFgV5V1hWHT99-27" target="72bKas-eFgV5V1hWHT99-27">
          <mxGeometry relative="1" as="geometry" />
        </mxCell>
      </root>
    </mxGraphModel>
  </diagram>
</mxfile>
